<?xml version="1.0" encoding="UTF-8"?><svg id="Layer_1" xmlns="http://www.w3.org/2000/svg" xmlns:xlink="http://www.w3.org/1999/xlink" viewBox="0 0 256 256"><defs><style>.cls-1,.cls-2{fill:none;}.cls-1,.cls-2,.cls-3{stroke-linecap:round;stroke-linejoin:round;}.cls-1,.cls-3{stroke:#112129;stroke-width:3.32px;}.cls-4{letter-spacing:0em;}.cls-5{fill:#ffcfaa;}.cls-6{font-size:46.3px;}.cls-6,.cls-7,.cls-8{fill:#112129;}.cls-6,.cls-9{font-family:Montserrat-ExtraBold, Montserrat;}.cls-10{letter-spacing:-.01em;}.cls-2{stroke:#000;stroke-width:.84px;}.cls-7{font-family:Oswald-Regular, Oswald;font-size:59.33px;}.cls-11,.cls-9{fill:#f17c23;}.cls-12{filter:url(#drop-shadow-1);}.cls-13{letter-spacing:0em;}.cls-9{font-size:55.96px;}.cls-14{letter-spacing:0em;}.cls-15{letter-spacing:0em;}.cls-16{letter-spacing:0em;}.cls-3{fill:#f7fafb;}</style><filter id="drop-shadow-1" filterUnits="userSpaceOnUse"><feOffset dx="-1.11" dy="3.32"/><feGaussianBlur result="blur" stdDeviation="0"/><feFlood flood-color="#dae2e5" flood-opacity=".75"/><feComposite in2="blur" operator="in"/><feComposite in="SourceGraphic"/></filter></defs><path class="cls-11" d="M241.88,101.8V26.05c0-8.1-6.57-14.67-14.67-14.67H21.5c-8.1,0-14.67,6.57-14.67,14.67V163.07c0,8.1,6.57,14.67,14.67,14.67H91.13l33.23,28.44,33.23-28.44h69.62c8.1,0,14.67-6.57,14.67-14.67v-61.27Z"/><path class="cls-3" d="M249.16,146.86V44.52c0-8.1-6.57-14.67-14.67-14.67H39.98c-8.1,0-14.67,6.57-14.67,14.67V181.54c0,8.1,6.57,14.67,14.67,14.67H109.6l33.23,28.44,33.23-28.44h45.64"/><text class="cls-9" transform="translate(34.91 114.19)"><tspan class="cls-10" x="0" y="0">P</tspan><tspan class="cls-13" x="40.41" y="0">a</tspan><tspan class="cls-4" x="76" y="0">ge</tspan></text><text class="cls-7" transform="translate(35.79 171.32) scale(.91 1)"><tspan class="cls-16" x="0" y="0">W</tspan><tspan x="42.66" y="0">ebsite</tspan></text><path class="cls-11" d="M187.15,241.25c0,1.86-20,3.37-44.67,3.37s-44.67-1.51-44.67-3.37,20-3.37,44.67-3.37,44.67,1.51,44.67,3.37Z"/><g class="cls-12"><path class="cls-3" d="M203.98,137.86h0c6.23-6.23,16.34-6.23,22.57,0l13.55,13.55c6.23,6.23,6.23,16.34,0,22.57h0c-6.23,6.23-16.34,6.23-22.57,0l-13.55-13.55c-6.23-6.23-6.23-16.34,0-22.57Z"/><path class="cls-2" d="M217.53,173.97l-6.33-6.33c-6.23-6.23-6.23-16.34,0-22.57,6.23-6.23,16.34-6.23,22.57,0l6.33,6.33"/><path class="cls-2" d="M229.64,163.52h0c.98-.98,2.56-.98,3.54,0l1.65,1.65c.98,.98,.98,2.56,0,3.54h0c-.98,.98-2.56,.98-3.54,0l-1.65-1.65c-.98-.98-.98-2.56,0-3.54Z"/></g><path class="cls-1" d="M240.1,173.97l5.76,5.76s10.19,16.48-24.15,16.48"/><text class="cls-6" transform="translate(37.05 72.07) scale(.8 1)"><tspan x="0" y="0">Si</tspan><tspan class="cls-15" x="44.45" y="0">n</tspan><tspan class="cls-14" x="77.04" y="0">gle</tspan></text><path class="cls-5" d="M240.52,38.95c.03,28.9,.02,57.81,.11,86.71,.02,4.82-.89,6.6-3.43,6.6-5.17-.01-5.26,.05-5.26-9.54,.02-27.92,.05-55.84,.08-83.76,2.83-2.45,5.67-2.44,8.5,0Z"/><path class="cls-11" d="M231.11,52.43c3.42-2.75,6.84-2.74,10.27,0,0,19.96,0,39.92-.01,59.88-3.41,2.73-6.83,2.73-10.24,0,0-19.96,0-39.92-.01-59.88Z"/><polygon class="cls-8" points="233.33 41.97 236.33 39.33 239.34 41.97 233.33 41.97"/><polygon class="cls-8" points="239.07 127.64 236.06 130.28 233.06 127.64 239.07 127.64"/></svg>